<svg xmlns="http://www.w3.org/2000/svg" width="61.15" height="61.027"><defs><style>.a{fill:#69ad74;stroke:#69ad74}</style></defs><path class="a" d="M58.265 28.251A2.262 2.262 0 0056 30.514 25.489 25.489 0 1130.514 5.025a2.263 2.263 0 100-4.525 30.014 30.014 0 1030.013 30.014 2.262 2.262 0 00-2.262-2.263z"/><path class="a" d="M59.99 8.706a2.262 2.262 0 00-3.2 0L29.65 35.775 19.858 25.14a2.263 2.263 0 10-3.329 3.065l11.387 12.367a2.26 2.26 0 001.616.729h.048a2.265 2.265 0 001.6-.66l28.807-28.732a2.262 2.262 0 00.003-3.203z"/></svg>
