<svg width="220" height="44" viewBox="0 0 220 44" fill="none" xmlns="http://www.w3.org/2000/svg">
<g id="Group 95">
<path id="Star 2" d="M22 0L26.9393 15.2016H42.9232L29.992 24.5967L34.9313 39.7984L22 30.4033L9.06872 39.7984L14.008 24.5967L1.07676 15.2016H17.0607L22 0Z" fill="#FFB800"/>
<path id="Star 3" d="M66 0L70.9393 15.2016H86.9232L73.992 24.5967L78.9313 39.7984L66 30.4033L53.0687 39.7984L58.008 24.5967L45.0768 15.2016H61.0607L66 0Z" fill="#FFB800"/>
<path id="Star 4" d="M110 0L114.939 15.2016H130.923L117.992 24.5967L122.931 39.7984L110 30.4033L97.0687 39.7984L102.008 24.5967L89.0768 15.2016H105.061L110 0Z" fill="#FFB800"/>
<path id="Star 5" d="M154 0L158.939 15.2016H174.923L161.992 24.5967L166.931 39.7984L154 30.4033L141.069 39.7984L146.008 24.5967L133.077 15.2016H149.061L154 0Z" fill="#FFB800"/>
<path id="Star 6" d="M198 0L202.939 15.2016H218.923L205.992 24.5967L210.931 39.7984L198 30.4033L185.069 39.7984L190.008 24.5967L177.077 15.2016H193.061L198 0Z" fill="#FFB800"/>
</g>
</svg>
