<svg xmlns="http://www.w3.org/2000/svg" width="57.369" height="67.993" viewBox="0 0 57.369 67.993"><defs><style>.a{fill:#69ad74;}</style></defs><path class="a" d="M95.731,11.01,69.7.2a2.656,2.656,0,0,0-2.037,0L41.638,11.01A2.656,2.656,0,0,0,40,13.463V26.6A44.478,44.478,0,0,0,67.681,67.8a2.656,2.656,0,0,0,2.007,0A44.479,44.479,0,0,0,97.369,26.6V13.463A2.656,2.656,0,0,0,95.731,11.01ZM92.057,26.6A39.176,39.176,0,0,1,68.684,62.452,39.177,39.177,0,0,1,45.312,26.6V15.236l23.372-9.7,23.372,9.7ZM65.749,35.552,77.165,24.137a2.656,2.656,0,1,1,3.756,3.756L67.627,41.186a2.656,2.656,0,0,1-3.756,0l-7.423-7.423A2.656,2.656,0,1,1,60.2,30.008Z" transform="translate(-40 0)"/></svg>